<?xml version="1.0" encoding="utf-8"?>
<svg version="1.1" id="Layer_1" xmlns="http://www.w3.org/2000/svg" xmlns:xlink="http://www.w3.org/1999/xlink" x="0px" y="0px" viewBox="0 0 24 24" style="enable-background:new 0 0 24 24;" xml:space="preserve">
<svg id="check-1" category="Interface Essential" sub-category="Form-Validation" viewBox="0 0 24 24"><g>
	<path d="M6.347,24.003c-0.601,0-1.182-0.183-1.68-0.529c-0.261-0.181-0.489-0.403-0.68-0.658L0.15,17.7
		c-0.12-0.16-0.171-0.358-0.143-0.556C0.036,16.946,0.14,16.77,0.3,16.65c0.131-0.098,0.286-0.15,0.45-0.15
		c0.235,0,0.459,0.112,0.6,0.3l3.839,5.118c0.094,0.127,0.207,0.236,0.335,0.325c0.245,0.17,0.53,0.26,0.826,0.26
		c0.086,0,0.173-0.008,0.259-0.023c0.381-0.068,0.712-0.281,0.933-0.599L22.636,0.32C22.775,0.12,23.005,0,23.25,0
		c0.154,0,0.303,0.047,0.429,0.135c0.165,0.115,0.274,0.287,0.309,0.484c0.035,0.197-0.009,0.396-0.124,0.561L8.772,22.739
		c-0.449,0.645-1.124,1.078-1.9,1.217C6.699,23.987,6.522,24.003,6.347,24.003z"/>
</g></svg>
<svg id="close" category="Interface Essential" sub-category="Form-Validation" viewBox="0 0 24 24"><g>
	<path d="M23.25,23.999c-0.2,0-0.389-0.078-0.53-0.22L12,13.06L1.28,23.779c-0.142,0.142-0.33,0.22-0.53,0.22
		s-0.389-0.078-0.53-0.22c-0.292-0.292-0.292-0.768,0-1.061l10.72-10.72L0.22,1.279C0.078,1.138,0,0.949,0,0.749
		s0.078-0.389,0.22-0.53c0.141-0.142,0.33-0.22,0.53-0.22s0.389,0.078,0.53,0.22L12,10.938l10.72-10.72
		c0.142-0.142,0.33-0.22,0.53-0.22s0.389,0.078,0.53,0.22C23.922,0.36,24,0.549,24,0.749s-0.078,0.389-0.22,0.53l-10.72,10.72
		l10.72,10.72c0.292,0.292,0.292,0.768,0,1.061C23.639,23.921,23.45,23.999,23.25,23.999z"/>
</g></svg>
<svg id="check-circle-1" category="Interface Essential" sub-category="Form-Validation" viewBox="0 0 24 24"><g>
	<path d="M9.325,17.916c-0.117,0-0.235-0.012-0.352-0.035c-0.472-0.094-0.879-0.365-1.146-0.764l-2.44-3.462
		c-0.238-0.338-0.157-0.807,0.181-1.045C5.695,12.52,5.844,12.473,6,12.473c0.244,0,0.473,0.119,0.614,0.318l2.45,3.477
		c0.054,0.081,0.12,0.126,0.201,0.142c0.02,0.004,0.04,0.006,0.06,0.006c0.058,0,0.115-0.018,0.164-0.051
		c0.028-0.019,0.052-0.042,0.072-0.068l7.852-9.935C17.555,6.182,17.769,6.078,18,6.078c0.168,0,0.333,0.057,0.464,0.161
		c0.157,0.124,0.257,0.302,0.28,0.501c0.023,0.199-0.032,0.395-0.156,0.552l-7.843,9.923c-0.113,0.149-0.257,0.284-0.423,0.396
		C10.025,17.811,9.68,17.916,9.325,17.916z"/>
	<path d="M12,23.999c-6.617,0-12-5.383-12-12c0-6.617,5.383-12,12-12c6.617,0,12,5.383,12,12C24,18.616,18.617,23.999,12,23.999z
		 M12,1.499c-5.79,0-10.5,4.71-10.5,10.5c0,5.79,4.71,10.5,10.5,10.5c5.79,0,10.5-4.71,10.5-10.5C22.5,6.209,17.79,1.499,12,1.499z"
		/>
</g></svg>
<svg id="remove-circle" category="Interface Essential" sub-category="Form-Validation" viewBox="0 0 24 24"><g>
	<path d="M12,23.999c-6.617,0-12-5.383-12-12c0-6.617,5.383-12,12-12c6.617,0,12,5.383,12,12C24,18.616,18.617,23.999,12,23.999z
		 M12,1.499c-5.79,0-10.5,4.71-10.5,10.5c0,5.79,4.71,10.5,10.5,10.5c5.79,0,10.5-4.71,10.5-10.5C22.5,6.209,17.79,1.499,12,1.499z"
		/>
	<path d="M16.5,17.249c-0.2,0-0.389-0.078-0.53-0.22L12,13.06l-3.97,3.97c-0.142,0.142-0.33,0.22-0.53,0.22s-0.389-0.078-0.53-0.22
		c-0.292-0.292-0.292-0.768,0-1.061l3.97-3.97l-3.97-3.97c-0.142-0.141-0.22-0.33-0.22-0.53s0.078-0.389,0.22-0.53
		c0.141-0.142,0.33-0.22,0.53-0.22s0.389,0.078,0.53,0.22l3.97,3.97l3.97-3.97c0.142-0.142,0.33-0.22,0.53-0.22
		s0.389,0.078,0.53,0.22c0.142,0.141,0.22,0.33,0.22,0.53s-0.078,0.389-0.22,0.53l-3.97,3.97l3.97,3.97
		c0.292,0.292,0.292,0.768,0,1.061C16.889,17.171,16.7,17.249,16.5,17.249z"/>
</g></svg>
</svg>